# xmcd
#
# Track frame offsets:
# 150
# 17541
# 32159
# 47471
# 64697
# 84086
# 99292
# 114691
# 130116
# 148469
# 167236
# 180944
# 198920
# 215312
# 235517
# 249552
#
# Disc length: 3518 seconds
#
#
# Revision: 0
# Processed by: cddbd v1.5.1PL2 Copyright (c) Steve Scherf et al.
# Submitted via: FreeRIP 2.92 
#
DISCID=ca0dbc10
DTITLE=Varios 80`s - 16 Baladas de Oro
DYEAR=1900
DGENRE=
TTITLE0=Doce Rosas
TTITLE1=Corazón Mágico
TTITLE2=No me hables no me hables
TTITLE3=El segundo en tu vida
TTITLE4=En Bancarrota
TTITLE5=Frio de Ausencia
TTITLE6=Corazón
TTITLE7=Arquitecto de tu amor
TTITLE8=Esta triste guitarra
TTITLE9=Sereno
TTITLE10=Veinticinco rosas
TTITLE11=Un buen perde
TTITLE12=Soldado del amor
TTITLE13=Procuro olvidarte
TTITLE14=Leña verde
TTITLE15=Los amantes mas locos
EXTD=
EXTT0=
EXTT1=
EXTT2=
EXTT3=
EXTT4=
EXTT5=
EXTT6=
EXTT7=
EXTT8=
EXTT9=
EXTT10=
EXTT11=
EXTT12=
EXTT13=
EXTT14=
EXTT15=
PLAYORDER=
